<svg xmlns="http://www.w3.org/2000/svg" width="90" height="86" viewBox="0 0 90 86"><defs><filter id="a" width="200%" height="200%" x="-50%" y="-50%"><feMorphology in="SourceGraphic" operator="dilate" result="SvgjsFeMorphology1233Out"/><feOffset dy="2" in="SvgjsFeMorphology1233Out" result="SvgjsFeOffset1234Out"/><feGaussianBlur in="SvgjsFeOffset1234Out" result="SvgjsFeGaussianBlur1235Out"/><feComposite in="SvgjsFeGaussianBlur1235Out" in2="SourceAlpha" operator="out" result="SvgjsFeComposite1236Out"/></filter><linearGradient id="b" x1="755.22" x2="707.91" y1="1375.12" y2="1408.25" gradientUnits="userSpaceOnUse"><stop offset="0" stop-opacity=".1"/><stop offset="1" stop-opacity="0"/></linearGradient><filter id="c" width="200%" height="200%" x="-50%" y="-50%"><feGaussianBlur in="SourceGraphic" result="SvgjsFeGaussianBlur1247Out"/></filter><mask id="d"><path fill="#fff" d="M733.2 1350.15a25.29 25.29 0 0 0-17.88 43.17l4.14 4.13 35.76 35.77v-71.53l-4.14-4.13a25.2 25.2 0 0 0-17.88-7.41"/></mask><filter id="e" width="200%" height="200%" x="-50%" y="-50%"><feMorphology in="SourceGraphic" operator="dilate" result="SvgjsFeMorphology1251Out"/><feOffset dy="2" in="SvgjsFeMorphology1251Out" result="SvgjsFeOffset1252Out"/><feGaussianBlur in="SvgjsFeOffset1252Out" result="SvgjsFeGaussianBlur1253Out"/><feComposite in="SvgjsFeGaussianBlur1253Out" in2="SourceAlpha" operator="out" result="SvgjsFeComposite1254Out"/></filter><linearGradient id="f" x1="796.86" x2="755.23" y1="1377.11" y2="1406.26" gradientUnits="userSpaceOnUse"><stop offset="0" stop-opacity=".1"/><stop offset="1" stop-opacity="0"/></linearGradient><filter id="g" width="200%" height="200%" x="-50%" y="-50%"><feGaussianBlur in="SourceGraphic" result="SvgjsFeGaussianBlur1265Out"/></filter><mask id="h"><path fill="#fff" d="M795.13 1357.55a25.3 25.3 0 0 0-35.77 0l-4.14 4.14v71.53l35.77-35.77 4.14-4.13c.58-.59 1.21-1.2 1.73-1.83v-32.11c-.52-.63-1.15-1.24-1.73-1.83z"/></mask></defs><path fill-opacity=".25" d="M733.2 1350.15a25.29 25.29 0 0 0-17.88 43.17l4.14 4.13 35.76 35.77v-71.53l-4.14-4.13a25.2 25.2 0 0 0-17.88-7.41" filter="url(#a)" transform="translate(-707 -1350)"/><path fill="#fe6060" d="M26.2.15A25.29 25.29 0 0 0 8.32 43.32l4.14 4.13 35.76 35.77V11.69l-4.14-4.13A25.2 25.2 0 0 0 26.2.15"/><path fill="#fe6060" d="M26.2.15A25.29 25.29 0 0 0 8.32 43.32l4.14 4.13 35.76 35.77V11.69l-4.14-4.13A25.2 25.2 0 0 0 26.2.15"/><path fill="#fe6060" d="M26.2.15A25.29 25.29 0 0 0 8.32 43.32l4.14 4.13 35.76 35.77V11.69l-4.14-4.13A25.2 25.2 0 0 0 26.2.15"/><path fill="url(#b)" d="M733.2 1350.15a25.29 25.29 0 0 0-17.88 43.17l4.14 4.13 35.76 35.77v-71.53l-4.14-4.13a25.2 25.2 0 0 0-17.88-7.41" transform="translate(-707 -1350)"/><path fill="#fff" fill-opacity=".2" d="M707 1435v-86h49v86zm26.2-83.85a25.29 25.29 0 0 0-17.88 43.17l4.14 4.13 35.76 35.77v-71.53l-4.14-4.13a25.2 25.2 0 0 0-17.88-7.41" filter="url(#c)" mask="url(&quot;#d&quot;)" transform="translate(-707 -1350)"/><path fill-opacity=".25" d="M795.13 1357.55a25.3 25.3 0 0 0-35.77 0l-4.14 4.14v71.53l35.77-35.77 4.14-4.13c.58-.59 1.21-1.2 1.73-1.83v-32.11c-.52-.63-1.15-1.24-1.73-1.83z" filter="url(#e)" transform="translate(-707 -1350)"/><path fill="#d34343" d="M88.13 7.55a25.3 25.3 0 0 0-35.77 0l-4.14 4.14v71.53L84 47.45l4.14-4.13c.58-.59 1.21-1.2 1.73-1.83V9.38c-.52-.63-1.15-1.24-1.73-1.83z"/><path fill="#d34343" d="M88.13 7.55a25.3 25.3 0 0 0-35.77 0l-4.14 4.14v71.53L84 47.45l4.14-4.13c.58-.59 1.21-1.2 1.73-1.83V9.38c-.52-.63-1.15-1.24-1.73-1.83z"/><path fill="#d34343" d="M88.13 7.55a25.3 25.3 0 0 0-35.77 0l-4.14 4.14v71.53L84 47.45l4.14-4.13c.58-.59 1.21-1.2 1.73-1.83V9.38c-.52-.63-1.15-1.24-1.73-1.83z"/><path fill="url(#f)" d="M795.13 1357.55a25.3 25.3 0 0 0-35.77 0l-4.14 4.14v71.53l35.77-35.77 4.14-4.13c.58-.59 1.21-1.2 1.73-1.83v-32.11c-.52-.63-1.15-1.24-1.73-1.83z" transform="translate(-707 -1350)"/><path fill="#fff" fill-opacity=".2" d="M755 1435v-86h42v86zm40.13-76.45a25.3 25.3 0 0 0-35.77 0l-4.14 4.14v71.53l35.77-35.77 4.14-4.13c.58-.59 1.21-1.2 1.73-1.83v-32.11c-.52-.63-1.15-1.24-1.73-1.83z" filter="url(#g)" mask="url(&quot;#h&quot;)" transform="translate(-707 -1350)"/><path fill-opacity=".25" d="M77.54 25.94v27.7L89.38 41.8 77.54 25.94"/><path fill="#f65959" d="M90 9.07v32.11C74.3 25.5 74.3 25.5 90 9.07z"/></svg>