<svg xmlns="http://www.w3.org/2000/svg" width="238.5" height="146" viewBox="0 0 238.5 146"><defs><filter id="a" width="200%" height="200%" x="-50%" y="-50%"><feMorphology in="SourceGraphic" operator="dilate" result="SvgjsFeMorphology1010Out"/><feOffset dy="2" in="SvgjsFeMorphology1010Out" result="SvgjsFeOffset1011Out"/><feGaussianBlur in="SvgjsFeOffset1011Out" result="SvgjsFeGaussianBlur1012Out"/><feComposite in="SvgjsFeGaussianBlur1012Out" in2="SourceAlpha" operator="out" result="SvgjsFeComposite1013Out"/></filter><linearGradient id="b" x1="1074.39" x2="1041.6" y1="992.01" y2="1134.01" gradientUnits="userSpaceOnUse"><stop offset="0" stop-opacity=".1"/><stop offset="1" stop-opacity="0"/></linearGradient><filter id="c" width="200%" height="200%" x="-50%" y="-50%"><feGaussianBlur in="SourceGraphic" result="SvgjsFeGaussianBlur1024Out"/></filter><mask id="d"><path fill="#fff" d="M1128.99 1124.07a9.94 9.94 0 0 1-9.94 9.94H996.94a9.94 9.94 0 0 1-9.94-9.94v-122.12a9.94 9.94 0 0 1 9.94-9.94h122.11a9.94 9.94 0 0 1 9.94 9.94z"/></mask><filter id="e" width="200%" height="200%" x="-50%" y="-50%"><feMorphology in="SourceGraphic" operator="dilate" result="SvgjsFeMorphology1031Out"/><feOffset dx="-2.8" dy="2.8" in="SvgjsFeMorphology1031Out" result="SvgjsFeOffset1032Out"/><feGaussianBlur in="SvgjsFeOffset1032Out" result="SvgjsFeGaussianBlur1033Out"/><feComposite in="SvgjsFeGaussianBlur1033Out" in2="SourceAlpha" operator="out" result="SvgjsFeComposite1034Out"/></filter><filter id="f" width="200%" height="200%" x="-50%" y="-50%"><feMorphology in="SourceGraphic" operator="dilate" result="SvgjsFeMorphology1040Out"/><feOffset dy="2" in="SvgjsFeMorphology1040Out" result="SvgjsFeOffset1041Out"/><feGaussianBlur in="SvgjsFeOffset1041Out" result="SvgjsFeGaussianBlur1042Out"/><feComposite in="SvgjsFeGaussianBlur1042Out" in2="SourceAlpha" operator="out" result="SvgjsFeComposite1043Out"/></filter><linearGradient id="g" x1="1193.85" x2="1175.15" y1="1053.01" y2="1134.02" gradientUnits="userSpaceOnUse"><stop offset="0" stop-opacity=".1"/><stop offset="1" stop-opacity="0"/></linearGradient><filter id="h" width="200%" height="200%" x="-50%" y="-50%"><feGaussianBlur in="SourceGraphic" result="SvgjsFeGaussianBlur1054Out"/></filter><mask id="i"><path fill="#fff" d="M1225 1128.35a5.67 5.67 0 0 1-5.67 5.67h-69.66a5.67 5.67 0 0 1-5.67-5.67v-69.67a5.67 5.67 0 0 1 5.67-5.67h69.66a5.67 5.67 0 0 1 5.67 5.67z"/></mask><filter id="j" width="200%" height="200%" x="-50%" y="-50%"><feMorphology in="SourceGraphic" operator="dilate" result="SvgjsFeMorphology1061Out"/><feOffset dx="-2.8" dy="2.8" in="SvgjsFeMorphology1061Out" result="SvgjsFeOffset1062Out"/><feGaussianBlur in="SvgjsFeOffset1062Out" result="SvgjsFeGaussianBlur1063Out"/><feComposite in="SvgjsFeGaussianBlur1063Out" in2="SourceAlpha" operator="out" result="SvgjsFeComposite1064Out"/></filter></defs><path fill-opacity=".25" d="M1128.99 1124.07a9.94 9.94 0 0 1-9.94 9.94H996.94a9.94 9.94 0 0 1-9.94-9.94v-122.12a9.94 9.94 0 0 1 9.94-9.94h122.11a9.94 9.94 0 0 1 9.94 9.94z" filter="url(#a)" transform="translate(-987 -991)"/><path fill="#9e99c4" d="M141.99 133.07a9.94 9.94 0 0 1-9.94 9.94H9.94A9.94 9.94 0 0 1 0 133.07V10.95a9.94 9.94 0 0 1 9.94-9.94h122.11a9.94 9.94 0 0 1 9.94 9.94z"/><path fill="#9e99c4" d="M141.99 133.07a9.94 9.94 0 0 1-9.94 9.94H9.94A9.94 9.94 0 0 1 0 133.07V10.95a9.94 9.94 0 0 1 9.94-9.94h122.11a9.94 9.94 0 0 1 9.94 9.94z"/><path fill="#9e99c4" d="M141.99 133.07a9.94 9.94 0 0 1-9.94 9.94H9.94A9.94 9.94 0 0 1 0 133.07V10.95a9.94 9.94 0 0 1 9.94-9.94h122.11a9.94 9.94 0 0 1 9.94 9.94z"/><path fill="url(#b)" d="M1128.99 1124.07a9.94 9.94 0 0 1-9.94 9.94H996.94a9.94 9.94 0 0 1-9.94-9.94v-122.12a9.94 9.94 0 0 1 9.94-9.94h122.11a9.94 9.94 0 0 1 9.94 9.94z" transform="translate(-987 -991)"/><path fill="#fff" fill-opacity=".25" d="M987 1136v-10.93a9.94 9.94 0 0 0 9.94 9.94h122.11a9.94 9.94 0 0 0 9.94-9.94v-122.12a9.94 9.94 0 0 0-9.94-9.94H996.94a9.94 9.94 0 0 0-9.94 9.94V991h142v145z" filter="url(#c)" mask="url(&quot;#d&quot;)" transform="translate(-987 -991)"/><path fill-opacity=".12" d="M38.35.97v141.99h4.26V.96zm62.45 0v141.99h4.26V.96z"/><path fill="#fff" fill-opacity=".25" d="M79.55 72.17l-35.67 35.67a4.25 4.25 0 0 1-6.02 0L25.2 95.19 0 120.39v12.69a9.94 9.94 0 0 0 9.94 9.94h122.11a9.94 9.94 0 0 0 9.94-9.94v-58.1h-11.42l-21.09 21.1c-.8.8-1.91 1.2-3.02 1.2-1.1 0-2.21-.4-3.01-1.2l-23.9-23.91"/><path fill="#fff" d="M141.99 60.6h-13.18c-1.13 0-2.22.45-3.01 1.25l-19.34 19.33-23.9-23.9a4.24 4.24 0 0 0-6.02 0L40.87 92.94 28.21 80.29a4.26 4.26 0 0 0-6.02 0L0 102.48v12.05l25.2-25.2 12.66 12.65a4.26 4.26 0 0 0 6.02 0l35.67-35.67 23.9 23.91a4.39 4.39 0 0 0 6.03 0l21.09-21.1h11.42z"/><path fill-opacity=".2" d="M1077.88 1053.07a11.37 11.37 0 1 1-22.73-.01 11.37 11.37 0 0 1 22.73.01z" filter="url(#e)" transform="translate(-987 -991)"/><path fill="#aeecfc" d="M90.88 62.07a11.37 11.37 0 1 1-22.73-.01 11.37 11.37 0 0 1 22.73.01z"/><path fill="#37353a" d="M100.82 12.36h-42.6v28.4H73.8l5.72 5.72 5.72-5.72h15.58z"/><path fill="#fff" d="M80.29 21.28v1.77l-4.95 10.23h-2.97l4.95-9.65v-.04h-5.5v-2.31zm5.69 12v-2.86h-5.32v-1.83l4.52-7.31h3.45v7.04h1.42v2.1h-1.42v2.86zm0-4.96v-2.66c0-.72.03-1.46.07-2.24h-.06c-.38.78-.72 1.48-1.12 2.24l-1.59 2.62-.02.04z"/><path fill-opacity=".25" d="M1225 1128.35a5.67 5.67 0 0 1-5.67 5.67h-69.66a5.67 5.67 0 0 1-5.67-5.67v-69.67a5.67 5.67 0 0 1 5.67-5.67h69.66a5.67 5.67 0 0 1 5.67 5.67z" filter="url(#f)" transform="translate(-987 -991)"/><path fill="#9e99c4" d="M238 137.35a5.67 5.67 0 0 1-5.67 5.67h-69.66a5.67 5.67 0 0 1-5.67-5.67V67.68a5.67 5.67 0 0 1 5.67-5.67h69.66a5.67 5.67 0 0 1 5.67 5.67z"/><path fill="#9e99c4" d="M238 137.35a5.67 5.67 0 0 1-5.67 5.67h-69.66a5.67 5.67 0 0 1-5.67-5.67V67.68a5.67 5.67 0 0 1 5.67-5.67h69.66a5.67 5.67 0 0 1 5.67 5.67z"/><path fill="#9e99c4" d="M238 137.35a5.67 5.67 0 0 1-5.67 5.67h-69.66a5.67 5.67 0 0 1-5.67-5.67V67.68a5.67 5.67 0 0 1 5.67-5.67h69.66a5.67 5.67 0 0 1 5.67 5.67z"/><path fill="url(#g)" d="M1225 1128.35a5.67 5.67 0 0 1-5.67 5.67h-69.66a5.67 5.67 0 0 1-5.67-5.67v-69.67a5.67 5.67 0 0 1 5.67-5.67h69.66a5.67 5.67 0 0 1 5.67 5.67z" transform="translate(-987 -991)"/><path fill="#fff" fill-opacity=".25" d="M1144 1136v-6.65a5.67 5.67 0 0 0 5.67 5.67h69.66a5.67 5.67 0 0 0 5.67-5.67v6.65zm0-84h81v7.68a5.67 5.67 0 0 0-5.67-5.67h-69.66a5.67 5.67 0 0 0-5.67 5.67z" filter="url(#h)" mask="url(&quot;#i&quot;)" transform="translate(-987 -991)"/><path fill-opacity=".12" d="M178.88 61.99v81h2.43v-81zm35.62 0v81h2.43v-81z"/><path fill="#fff" fill-opacity=".25" d="M202.38 102.61l-20.35 20.35a2.42 2.42 0 0 1-3.43 0l-7.22-7.22L157 130.11v7.24a5.67 5.67 0 0 0 5.67 5.67h69.66a5.67 5.67 0 0 0 5.67-5.67v-33.14h-6.51l-12.04 12.04c-.45.45-1.08.68-1.71.68-.64 0-1.27-.23-1.72-.68l-13.64-13.64"/><path fill="#fff" d="M238 96.01h-7.52c-.64 0-1.26.25-1.72.71l-11.02 11.03-13.64-13.64a2.43 2.43 0 0 0-3.44 0l-20.35 20.35-7.22-7.22a2.42 2.42 0 0 0-3.43 0L157 119.9v6.87l14.38-14.38 7.22 7.22c.94.95 2.48.95 3.43 0l20.35-20.34 13.64 13.63a2.5 2.5 0 0 0 3.43 0l12.04-12.03H238z"/><path fill-opacity=".2" d="M1195.84 1087.84a6.49 6.49 0 1 1-12.97 0 6.49 6.49 0 0 1 12.97 0z" filter="url(#j)" transform="translate(-987 -991)"/><path fill="#aeecfc" d="M208.84 96.84a6.49 6.49 0 1 1-12.97 0 6.49 6.49 0 0 1 12.97 0z"/><path fill="#37353a" d="M214.51 68.49h-24.3v16.2h8.89l3.26 3.26 3.26-3.26h8.89z"/><path fill="#fff" d="M202.8 73.58v1.01l-2.82 5.83h-1.69l2.82-5.51v-.02h-3.14v-1.31zm3.25 6.84v-1.63h-3.04v-1.04l2.58-4.17h1.97v4.01h.81v1.2h-.81v1.63zm0-2.83v-1.52c0-.41.02-.83.04-1.27h-.03c-.22.44-.41.84-.65 1.27l-.9 1.5-.01.02z"/></svg>